<mxfile host="app.diagrams.net" modified="2022-06-29T14:22:21.365Z" agent="5.0 (Windows)" etag="wlmwRWmvGqSHwPnL9-P_" version="20.0.4" type="github">
  <diagram id="ad-wLy6nSdAxR0GW8jck" name="Page-1">
    <mxGraphModel dx="782" dy="460" grid="1" gridSize="10" guides="1" tooltips="1" connect="1" arrows="1" fold="1" page="1" pageScale="1" pageWidth="850" pageHeight="1100" math="0" shadow="0">
      <root>
        <mxCell id="0" />
        <mxCell id="1" parent="0" />
        <mxCell id="1n4Mq7dSJiSWEhdDIDNP-1" value="" style="triangle;whiteSpace=wrap;html=1;rotation=-90;" vertex="1" parent="1">
          <mxGeometry x="240" y="10" width="90" height="210" as="geometry" />
        </mxCell>
        <mxCell id="1n4Mq7dSJiSWEhdDIDNP-2" value="" style="whiteSpace=wrap;html=1;aspect=fixed;" vertex="1" parent="1">
          <mxGeometry x="180" y="160" width="210" height="210" as="geometry" />
        </mxCell>
        <mxCell id="1n4Mq7dSJiSWEhdDIDNP-3" value="" style="rounded=0;whiteSpace=wrap;html=1;" vertex="1" parent="1">
          <mxGeometry x="330" y="220" width="60" height="150" as="geometry" />
        </mxCell>
        <mxCell id="1n4Mq7dSJiSWEhdDIDNP-4" value="" style="ellipse;whiteSpace=wrap;html=1;aspect=fixed;" vertex="1" parent="1">
          <mxGeometry x="198" y="190" width="50" height="50" as="geometry" />
        </mxCell>
        <mxCell id="1n4Mq7dSJiSWEhdDIDNP-5" value="" style="whiteSpace=wrap;html=1;aspect=fixed;" vertex="1" parent="1">
          <mxGeometry x="263" y="190" width="50" height="50" as="geometry" />
        </mxCell>
        <mxCell id="1n4Mq7dSJiSWEhdDIDNP-6" value="杜艺歆" style="shape=umlActor;verticalLabelPosition=bottom;verticalAlign=top;html=1;outlineConnect=0;" vertex="1" parent="1">
          <mxGeometry x="440" y="290" width="30" height="60" as="geometry" />
        </mxCell>
        <mxCell id="1n4Mq7dSJiSWEhdDIDNP-9" value="杜兴洲" style="shape=umlActor;verticalLabelPosition=bottom;verticalAlign=top;html=1;outlineConnect=0;" vertex="1" parent="1">
          <mxGeometry x="550" y="290" width="30" height="60" as="geometry" />
        </mxCell>
        <mxCell id="1n4Mq7dSJiSWEhdDIDNP-11" value="妈妈" style="shape=umlActor;verticalLabelPosition=bottom;verticalAlign=top;html=1;outlineConnect=0;" vertex="1" parent="1">
          <mxGeometry x="660" y="290" width="30" height="60" as="geometry" />
        </mxCell>
        <mxCell id="1n4Mq7dSJiSWEhdDIDNP-13" value="爷爷" style="shape=umlActor;verticalLabelPosition=bottom;verticalAlign=top;html=1;outlineConnect=0;" vertex="1" parent="1">
          <mxGeometry x="440" y="390" width="30" height="60" as="geometry" />
        </mxCell>
        <mxCell id="1n4Mq7dSJiSWEhdDIDNP-14" value="奶奶" style="shape=umlActor;verticalLabelPosition=bottom;verticalAlign=top;html=1;outlineConnect=0;" vertex="1" parent="1">
          <mxGeometry x="550" y="390" width="30" height="60" as="geometry" />
        </mxCell>
        <mxCell id="1n4Mq7dSJiSWEhdDIDNP-15" value="&amp;nbsp;爸爸" style="shape=umlActor;verticalLabelPosition=bottom;verticalAlign=top;html=1;outlineConnect=0;" vertex="1" parent="1">
          <mxGeometry x="660" y="390" width="30" height="60" as="geometry" />
        </mxCell>
        <mxCell id="1n4Mq7dSJiSWEhdDIDNP-16" value="" style="shape=or;whiteSpace=wrap;html=1;rotation=-90;" vertex="1" parent="1">
          <mxGeometry x="451.25" y="276.25" width="7.5" height="20" as="geometry" />
        </mxCell>
        <mxCell id="1n4Mq7dSJiSWEhdDIDNP-20" style="edgeStyle=orthogonalEdgeStyle;rounded=0;orthogonalLoop=1;jettySize=auto;html=1;" edge="1" parent="1" source="1n4Mq7dSJiSWEhdDIDNP-19">
          <mxGeometry relative="1" as="geometry">
            <mxPoint x="690" y="310" as="targetPoint" />
          </mxGeometry>
        </mxCell>
        <mxCell id="1n4Mq7dSJiSWEhdDIDNP-21" value="" style="rounded=0;whiteSpace=wrap;html=1;" vertex="1" parent="1">
          <mxGeometry x="330" y="50" width="35" height="90" as="geometry" />
        </mxCell>
        <mxCell id="1n4Mq7dSJiSWEhdDIDNP-22" value="" style="shape=tape;whiteSpace=wrap;html=1;fillColor=#e51400;fontColor=#ffffff;strokeColor=#B20000;" vertex="1" parent="1">
          <mxGeometry x="140" y="60" width="70" height="60" as="geometry" />
        </mxCell>
        <mxCell id="1n4Mq7dSJiSWEhdDIDNP-23" value="" style="endArrow=none;html=1;rounded=0;entryX=1;entryY=0.35;entryDx=0;entryDy=0;entryPerimeter=0;exitX=0.233;exitY=0.143;exitDx=0;exitDy=0;exitPerimeter=0;" edge="1" parent="1" source="1n4Mq7dSJiSWEhdDIDNP-1" target="1n4Mq7dSJiSWEhdDIDNP-22">
          <mxGeometry width="50" height="50" relative="1" as="geometry">
            <mxPoint x="370" y="250" as="sourcePoint" />
            <mxPoint x="420" y="200" as="targetPoint" />
          </mxGeometry>
        </mxCell>
        <mxCell id="1n4Mq7dSJiSWEhdDIDNP-24" value="" style="shape=trapezoid;perimeter=trapezoidPerimeter;whiteSpace=wrap;html=1;fixedSize=1;" vertex="1" parent="1">
          <mxGeometry x="432.5" y="320" width="45" height="20" as="geometry" />
        </mxCell>
        <mxCell id="1n4Mq7dSJiSWEhdDIDNP-25" value="" style="shape=xor;whiteSpace=wrap;html=1;rotation=-90;" vertex="1" parent="1">
          <mxGeometry x="670.62" y="281" width="8.75" height="12.5" as="geometry" />
        </mxCell>
        <mxCell id="1n4Mq7dSJiSWEhdDIDNP-26" value="" style="shape=trapezoid;perimeter=trapezoidPerimeter;whiteSpace=wrap;html=1;fixedSize=1;" vertex="1" parent="1">
          <mxGeometry x="650" y="320" width="47" height="20" as="geometry" />
        </mxCell>
        <mxCell id="1n4Mq7dSJiSWEhdDIDNP-19" value="" style="shape=or;whiteSpace=wrap;html=1;rotation=90;" vertex="1" parent="1">
          <mxGeometry x="682" y="315" width="15" height="20" as="geometry" />
        </mxCell>
        <mxCell id="1n4Mq7dSJiSWEhdDIDNP-27" value="" style="shape=trapezoid;perimeter=trapezoidPerimeter;whiteSpace=wrap;html=1;fixedSize=1;" vertex="1" parent="1">
          <mxGeometry x="541.5" y="420" width="47" height="20" as="geometry" />
        </mxCell>
        <mxCell id="1n4Mq7dSJiSWEhdDIDNP-28" value="" style="verticalLabelPosition=bottom;verticalAlign=top;html=1;shape=mxgraph.basic.heart;rotation=0;fillColor=#0050ef;fontColor=#ffffff;strokeColor=#001DBC;" vertex="1" parent="1">
          <mxGeometry x="451.15" y="326.37" width="8.75" height="11" as="geometry" />
        </mxCell>
        <mxCell id="1n4Mq7dSJiSWEhdDIDNP-29" value="" style="verticalLabelPosition=bottom;verticalAlign=top;html=1;shape=mxgraph.basic.pyramid;dx1=0.4;dx2=0.6;dy1=0.9;dy2=0.8;" vertex="1" parent="1">
          <mxGeometry x="460" y="140" width="160" height="100" as="geometry" />
        </mxCell>
        <mxCell id="1n4Mq7dSJiSWEhdDIDNP-30" value="" style="verticalLabelPosition=bottom;verticalAlign=top;html=1;shape=mxgraph.basic.pyramid;dx1=0.4;dx2=0.6;dy1=0.9;dy2=0.8;" vertex="1" parent="1">
          <mxGeometry x="550" y="150" width="160" height="100" as="geometry" />
        </mxCell>
        <mxCell id="1n4Mq7dSJiSWEhdDIDNP-31" value="" style="verticalLabelPosition=bottom;verticalAlign=top;html=1;shape=mxgraph.basic.moon;fillColor=#e3c800;fontColor=#000000;strokeColor=#B09500;" vertex="1" parent="1">
          <mxGeometry x="451.25" y="80" width="30" height="40" as="geometry" />
        </mxCell>
        <mxCell id="1n4Mq7dSJiSWEhdDIDNP-32" value="" style="verticalLabelPosition=bottom;verticalAlign=top;html=1;shape=mxgraph.basic.star;fillColor=#e3c800;fontColor=#000000;strokeColor=#B09500;" vertex="1" parent="1">
          <mxGeometry x="490" y="70" width="20" height="20" as="geometry" />
        </mxCell>
        <mxCell id="1n4Mq7dSJiSWEhdDIDNP-33" value="" style="verticalLabelPosition=bottom;verticalAlign=top;html=1;shape=mxgraph.flowchart.on-page_reference;" vertex="1" parent="1">
          <mxGeometry x="50" y="220" width="30" height="30" as="geometry" />
        </mxCell>
        <mxCell id="1n4Mq7dSJiSWEhdDIDNP-34" value="" style="shape=message;html=1;whiteSpace=wrap;html=1;outlineConnect=0;" vertex="1" parent="1">
          <mxGeometry x="679.5" y="323.62" width="20" height="16.5" as="geometry" />
        </mxCell>
      </root>
    </mxGraphModel>
  </diagram>
</mxfile>
